<?xml version="1.0" encoding="UTF-8"?>
<svg version="1.1" xmlns="http://www.w3.org/2000/svg" width="500" height="500">
<path d="M0 0 C0.84654144 -0.00708481 1.69308289 -0.01416962 2.5652771 -0.02146912 C3.49615143 -0.0189917 4.42702576 -0.01651428 5.3861084 -0.01396179 C6.36520172 -0.01907272 7.34429504 -0.02418365 8.35305786 -0.02944946 C11.60567259 -0.04340263 14.85807657 -0.0423833 18.11071777 -0.04008484 C20.37076903 -0.04397086 22.63081956 -0.04830533 24.89086914 -0.05307007 C29.63898071 -0.0605462 34.38701797 -0.06023255 39.13513184 -0.05497742 C45.20331814 -0.04920475 51.27119704 -0.0660537 57.33933258 -0.08932209 C62.01324223 -0.10410371 66.68707881 -0.10492469 71.36100769 -0.10181236 C73.59678248 -0.10232413 75.83256152 -0.10753471 78.0683136 -0.11762428 C81.20829748 -0.13004617 84.34769544 -0.12316055 87.4876709 -0.11161804 C88.40235138 -0.11926178 89.31703186 -0.12690552 90.25942993 -0.13478088 C102.25304497 -0.03798309 110.04869974 3.86247925 118.70837402 11.88569641 C125.01902866 18.46522605 127.16972626 26.42839729 127.39196777 35.38569641 C126.99665721 46.72616806 123.06926557 55.44071922 114.76696777 63.34272766 C102.33519208 73.05505243 85.87716618 71.71017728 70.94665527 71.65913391 C68.84632262 71.66115875 66.74599066 71.6640736 64.6456604 71.66783142 C60.27359227 71.67222571 55.90170949 71.66591121 51.52966309 71.65180969 C45.92529726 71.63461305 40.32135921 71.64464319 34.71700859 71.66252708 C30.39334875 71.67335311 26.06979095 71.66992583 21.74612808 71.66214371 C19.6784472 71.66014392 17.61075704 71.66259321 15.54308701 71.66958237 C12.66417446 71.67718892 9.78596456 71.66560853 6.90710449 71.64888 C6.05516006 71.6549527 5.20321564 71.66102539 4.32545471 71.6672821 C0.9672168 71.63107446 -1.4841929 71.51067312 -4.57470703 70.13439941 C-6.73097423 67.38750309 -6.53989111 65.35998549 -6.53137207 61.89326477 C-6.54060196 59.92123329 -6.54060196 59.92123329 -6.55001831 57.90936279 C-6.53622338 56.47308147 -6.52168948 55.03680709 -6.50646973 53.60054016 C-6.50408546 52.12988445 -6.50317994 50.65922567 -6.50369263 49.18856812 C-6.50056473 46.10751764 -6.48399952 43.02693256 -6.45715332 39.94599915 C-6.42314324 35.99237788 -6.41552555 32.03926735 -6.41704369 28.08551693 C-6.41650048 25.04951075 -6.40554179 22.01361671 -6.3910408 18.97764778 C-6.38466735 17.51957104 -6.38073263 16.06148157 -6.37925339 14.60339165 C-6.37492807 12.56845927 -6.35585619 10.5335742 -6.33605957 8.49873352 C-6.32843597 7.33974045 -6.32081238 6.18074738 -6.31295776 4.9866333 C-5.87660872 0.53881595 -4.05412966 0.01128716 0 0 Z " fill="#FBFBFB" transform="translate(190.0455322265625,254.7393035888672)"/>
<path d="M0 0 C1.11575912 -0.005476 1.11575912 -0.005476 2.25405884 -0.01106262 C4.70655359 -0.01914916 7.1583832 -0.00556636 9.61083984 0.0090332 C11.32612101 0.00955237 13.04140277 0.00903248 14.75668335 0.00752258 C18.3528532 0.00761224 21.94879862 0.01802287 25.54492188 0.03613281 C30.12757192 0.05871692 34.7098913 0.05938195 39.29258156 0.05261517 C42.83762485 0.04925182 46.38259449 0.05595119 49.92762375 0.0657444 C51.61550891 0.06956379 53.30340232 0.07075832 54.99129105 0.06915855 C70.09328789 0.06676713 82.21625475 0.61028409 94.19677734 10.68481445 C101.61272687 19.54275416 104.99937545 27.18608656 104.69287109 38.83325195 C103.73384173 48.72799938 99.32331238 57.16725296 91.88427734 63.74731445 C84.0131438 69.96860341 76.52647594 71.68274442 66.67578125 71.63110352 C65.42063721 71.63636047 65.42063721 71.63636047 64.14013672 71.64172363 C61.40111768 71.65045793 58.66236105 71.64472461 55.92333984 71.63793945 C54.01142325 71.63928773 52.09950698 71.64122962 50.18759155 71.64373779 C46.19501457 71.64667713 42.20252744 71.64242693 38.20996094 71.63305664 C33.0850905 71.62161629 27.96042851 71.62825795 22.83556557 71.64020157 C18.89458633 71.64741279 14.95365694 71.64513645 11.01267624 71.63994598 C9.12197215 71.63860984 7.23126357 71.64025597 5.34056473 71.64490509 C2.70738882 71.64996326 0.07455644 71.64227236 -2.55859375 71.63110352 C-3.34299835 71.63515198 -4.12740295 71.63920044 -4.93557739 71.64337158 C-10.32468433 71.60085277 -10.32468433 71.60085277 -12.55322266 69.37231445 C-12.82737732 66.64637756 -12.82737732 66.64637756 -12.85961914 63.13427734 C-12.87560654 61.82274185 -12.89159393 60.51120636 -12.9080658 59.15992737 C-12.91444159 57.72161241 -12.91983462 56.28329281 -12.92431641 54.8449707 C-12.93327934 53.37527878 -12.94240112 51.90558782 -12.95167542 50.43589783 C-12.96817772 47.35323873 -12.97586785 44.27068841 -12.97875977 41.18798828 C-12.9841476 37.23524889 -13.02183685 33.28352958 -13.06750393 29.33107853 C-13.09722631 26.29504145 -13.10448223 23.25925154 -13.10548592 20.22308159 C-13.10969728 18.76577515 -13.12216844 17.30846858 -13.14300346 15.85130501 C-13.16981229 13.8142926 -13.1620056 11.77691313 -13.15258789 9.73974609 C-13.15765854 8.57995743 -13.16272919 7.42016876 -13.16795349 6.22523499 C-12.55322266 3.37231445 -12.55322266 3.37231445 -10.48783875 1.49761963 C-6.92638221 0.1319468 -3.75799596 -0.04138474 0 0 Z " fill="#FBFBFB" transform="translate(195.55322265625,173.627685546875)"/>
</svg>
